<svg xmlns="http://www.w3.org/2000/svg" viewBox="0 0 376 148">
  <defs>
    <linearGradient id="a" x1="0%" x2="100%" y1="-96.3%" y2="-96.3%">
      <stop offset="0%" stop-color="#593D09"/>
      <stop offset="100%" stop-color="#7F5200"/>
    </linearGradient>
    <linearGradient id="b" x1="0%" x2="100%" y1="-96.36%" y2="-96.36%">
      <stop offset="0%" stop-color="#563B09"/>
      <stop offset="100%" stop-color="#291D04"/>
    </linearGradient>
  </defs>
  <g fill="none" fill-rule="evenodd">
    <path fill="url(#a)" d="M273.22.13a17.8 17.8 0 0 0-10.62 3.4 18.44 18.44 0 0 0-7.85-1.74c-9.15 0-16.56 6.58-16.56 14.68 0 1.6.29 3.13.81 4.57a13.66 13.66 0 0 0-4.15 9.68c0 1.26.2 2.5.53 3.66a17.31 17.31 0 0 0-4.13 1.78 16.15 16.15 0 0 0-6.15 4.78v.03c-1.55.58-3 1.22-4.38 1.94-2.62-6.06-7.61-10.46-13.56-11.5a16.47 16.47 0 0 0-11.1-4.44c-3.95 0-7.63 1.46-10.62 3.97a16.2 16.2 0 0 0-9.5-3.15c-9.5 0-17.3 8.53-18.16 19.4-1.68-.6-3.48-.94-5.34-.94-5.6 0-10.62 2.97-13.97 7.63a52 52 0 0 0-2.81-.1c-2.94 0-5.77.24-8.5.66-3.15-6.4-9.05-10.72-15.81-10.72-7.67 0-14.24 5.55-16.94 13.41-2.87-7.4-9.2-12.56-16.6-12.56-5.57 0-10.55 2.94-13.9 7.56a15.87 15.87 0 0 0-7.06-1.69c-7.54 0-14.03 5.36-16.82 13a16.15 16.15 0 0 0-9.18-2.94c-6.78 0-12.7 4.33-15.85 10.75a9.46 9.46 0 0 0-4.3-1.06C4.77 70.2 0 75.8 0 82.72s4.78 12.53 10.7 12.53c1.78 0 3.5-.49 5-1.4.05.1.14.2.21.31 1.4 4.02 4.53 7 8.31 7.66 2.05.93 4.3 1.47 6.63 1.47a16.1 16.1 0 0 0 9-2.82c1.29 5.23 5.4 9.07 10.28 9.07.78 0 1.54-.1 2.28-.29a17.4 17.4 0 0 0 14.1.47 9.8 9.8 0 0 0 7.09 3.16c3.4 0 6.41-1.86 8.37-4.75 4.4 7.92 16.11 13.74 30.16 14.37 1.84 3.77 5.3 6.32 9.28 6.32 3.56 0 6.71-2.05 8.66-5.19a25.07 25.07 0 0 0 3.43 3.06c.83 5.96 5.25 10.5 10.57 10.5 2.9 0 5.5-1.34 7.43-3.53l.28.03c1.62 4.54 5.43 7.72 9.88 7.72 1.28 0 2.52-.27 3.66-.75 6.33 4.34 15.51 7.06 25.71 7.06 13.53 0 25.22-4.79 30.91-11.78a56 56 0 0 0 2.31-.15c2.14.91 4.51 1.46 7.03 1.46 6.92 0 12.83-3.86 15.32-9.34.41-.32.8-.63 1.18-.97.91.14 1.84.25 2.79.25 1.43 0 2.82-.19 4.15-.5 1.85 3.77 5.31 6.31 9.28 6.31 4.32 0 8.03-3 9.72-7.3a18.1 18.1 0 0 0 11.47-1.94 9.87 9.87 0 0 0 7.31 3.37c4.54 0 8.42-3.32 9.97-8 .45.05.89.1 1.35.1 1.12 0 2.22-.17 3.28-.44a9.63 9.63 0 0 0 6.37 2.46c4.41 0 8.2-3.12 9.85-7.59a17.74 17.74 0 0 0 8.62 2.19c6.44 0 12-3.33 14.75-8.22 1.92.7 4.03 1.1 6.22 1.1 9.15 0 16.56-6.76 16.56-15.1 0-.99-.11-1.94-.31-2.88 1.28-2.13 2-4.58 2-7.18 0-4.87-2.54-9.18-6.47-11.94.38-1.27.6-2.62.6-4 0-8.34-7.45-15.1-16.6-15.1-.8 0-1.6.1-2.37.2a13 13 0 0 0 .5-3.54c0-8.1-7.41-14.69-16.57-14.69-.26 0-.52.03-.78.04-1.85-3.76-5.31-6.29-9.28-6.29-1.55 0-3.01.4-4.34 1.1-4.1-7.03-14-12.34-26.13-13.75.02-.27.06-.54.06-.81 0-8.11-7.4-14.66-16.56-14.66Zm41.72 54.69a14.49 14.49 0 0 0 2.47 3.62c-.92-.12-1.87-.2-2.81-.28.24-1 .34-2.02.34-3.1v-.24Zm-36.56 2.97c1.23.1 2.48.16 3.75.18.16.7.42 1.37.69 2.03a39.95 39.95 0 0 0-4.57-1.84c.04-.12.1-.25.13-.37Z" transform="translate(0 .16)"/>
    <path fill="url(#b)" d="M273.65.23a17.8 17.8 0 0 0-10.63 3.4 18.25 18.25 0 0 0-11.87-1.28 105.2 105.2 0 0 1 8.21 6.94c11.3 1.25 20.07 10.26 20.07 21.22 0 2.39-.42 4.7-1.2 6.84a49.29 49.29 0 0 1 2.54 15.44v.06a20.71 20.71 0 0 1 7.22 15.63c0 11.7-10 21.23-22.4 21.4l-1.16 1.32c.96 2.14 1.5 4.45 1.5 6.84 0 11.81-12.82 21.38-28.66 21.38-1.4 0-2.8-.08-4.16-.22-2.43 10.34-16.84 18.28-34.25 18.28a52 52 0 0 1-16.75-2.66 24.45 24.45 0 0 1-13.46 7.72c6.09 3.3 14.06 5.28 22.8 5.28 13.53 0 25.22-4.79 30.91-11.78.78-.03 1.56-.1 2.32-.16 2.14.92 4.5 1.47 7.03 1.47 6.91 0 12.82-3.86 15.31-9.34.41-.32.8-.63 1.19-.97.9.14 1.83.25 2.78.25 1.43 0 2.83-.19 4.16-.5 1.84 3.77 5.3 6.31 9.28 6.31 4.31 0 8.02-3 9.72-7.3.92.13 1.87.2 2.84.2 3.16 0 6.11-.79 8.62-2.15a9.87 9.87 0 0 0 7.32 3.38c4.54 0 8.41-3.32 9.97-8 .44.05.88.1 1.34.1 1.12 0 2.22-.17 3.28-.45a9.64 9.64 0 0 0 6.38 2.47c4.4 0 8.2-3.13 9.84-7.6a17.74 17.74 0 0 0 8.62 2.2c6.44 0 12.01-3.33 14.75-8.22 1.92.7 4.03 1.1 6.22 1.1 9.16 0 16.57-6.76 16.57-15.1 0-.99-.12-1.94-.32-2.88a13.9 13.9 0 0 0 2-7.18c0-4.87-2.54-9.18-6.47-11.94.38-1.27.6-2.62.6-4 0-8.34-7.44-15.1-16.6-15.1-.8 0-1.6.09-2.37.2.32-1.15.5-2.31.5-3.54 0-8.1-7.41-14.69-16.56-14.69-.27 0-.52.02-.78.03-1.85-3.75-5.32-6.28-9.29-6.28-1.55 0-3.01.4-4.34 1.1-4.1-7.03-14-12.34-26.12-13.75.01-.27.06-.54.06-.82 0-8.1-7.41-14.65-16.56-14.65Zm41.71 54.69a14.49 14.49 0 0 0 2.47 3.62 54.8 54.8 0 0 0-2.81-.28c.24-1 .34-2.03.34-3.1v-.24Z" transform="translate(0 .16)"/>
    <path fill="#734B02" stroke="#000" stroke-width="1.07" d="M161.42 114.7c1.45 0 2.8.42 3.95 1.13h.1a7.53 7.53 0 0 1 7.52 7.13v.4a7.5 7.5 0 0 1-.65 3.05 7.46 7.46 0 0 1 1.26 4.17v.39a7.53 7.53 0 0 1-8.68 7.04 7.5 7.5 0 0 1-8.11.08l-.45.01a7.53 7.53 0 0 1-6.86-10.58 7.53 7.53 0 0 1 7.73-11.54 7.47 7.47 0 0 1 4.19-1.28Z"/>
    <path fill="#3B2906" d="M163.32 117.1c1.45 0 2.8.42 3.95 1.13h.1a7.53 7.53 0 0 1 7.52 7.13v.4a7.5 7.5 0 0 1-.65 3.05 7.46 7.46 0 0 1 1.26 4.17v.4a7.53 7.53 0 0 1-8.68 7.03 7.5 7.5 0 0 1-8.11.08l-.45.01a7.53 7.53 0 0 1-6.86-10.58 7.53 7.53 0 0 1 7.73-11.54 7.47 7.47 0 0 1 4.19-1.28Z"/>
    <path fill="#734B02" stroke="#000" stroke-width="1.07" d="M244.52 114.16c1.45 0 2.8.42 3.95 1.13h.1a7.53 7.53 0 0 1 7.52 7.13v.39a7.5 7.5 0 0 1-.65 3.05 7.46 7.46 0 0 1 1.26 4.18v.39a7.53 7.53 0 0 1-8.68 7.04 7.5 7.5 0 0 1-8.11.08h-.45a7.53 7.53 0 0 1-6.86-10.58 7.53 7.53 0 0 1 7.73-11.54 7.47 7.47 0 0 1 4.19-1.27Z"/>
    <path fill="#3B2906" d="M246.42 116.56c1.45 0 2.8.42 3.95 1.13h.1a7.53 7.53 0 0 1 7.52 7.13v.39a7.5 7.5 0 0 1-.65 3.05 7.46 7.46 0 0 1 1.26 4.18v.39a7.53 7.53 0 0 1-8.68 7.04 7.5 7.5 0 0 1-8.11.08h-.45a7.53 7.53 0 0 1-6.86-10.58 7.53 7.53 0 0 1 7.73-11.54 7.47 7.47 0 0 1 4.19-1.27Z"/>
    <path fill="#734B02" stroke="#000" stroke-width="1.65" d="M353.45 67.57c2.24 0 4.33.65 6.1 1.75h.16c6.2 0 11.29 4.87 11.6 11v.6c0 1.68-.37 3.27-1.01 4.71a11.51 11.51 0 0 1 1.95 6.44v.6a11.61 11.61 0 0 1-13.4 10.87 11.58 11.58 0 0 1-12.51.12l-.69.02a11.61 11.61 0 0 1-10.59-16.34 11.44 11.44 0 0 1-1.97-6.42A11.61 11.61 0 0 1 347 69.54a11.52 11.52 0 0 1 6.46-1.97Z"/>
    <path fill="#3B2906" d="M356.38 71.27c2.24 0 4.33.65 6.1 1.75h.16c6.2 0 11.29 4.87 11.6 11v.6c0 1.68-.37 3.27-1.01 4.72a11.51 11.51 0 0 1 1.95 6.44v.6a11.61 11.61 0 0 1-13.4 10.86 11.58 11.58 0 0 1-12.5.12c-.24.02-.46.02-.7.02A11.61 11.61 0 0 1 338 91.05a11.44 11.44 0 0 1-1.98-6.43 11.61 11.61 0 0 1 13.9-11.37 11.52 11.52 0 0 1 6.46-1.98Z"/>
    <path fill="#734B02" stroke="#000" stroke-width="1.13" d="M303.2 47.1a7.9 7.9 0 0 1 4.2 1.2h.1a7.98 7.98 0 0 1 7.98 7.56v.41c0 1.16-.25 2.25-.7 3.24a7.91 7.91 0 0 1 1.35 4.43v.41a7.98 7.98 0 0 1-9.21 7.47 7.96 7.96 0 0 1-8.6.08l-.47.01a7.98 7.98 0 0 1-7.28-11.22 7.98 7.98 0 0 1 8.2-12.24 7.92 7.92 0 0 1 4.44-1.35Z"/>
    <path fill="#3B2906" d="M306.9 51.32c1.54 0 2.98.45 4.2 1.2h.1a7.98 7.98 0 0 1 7.97 7.56v.41c0 1.16-.25 2.25-.7 3.24a7.91 7.91 0 0 1 1.35 4.43v.41a7.98 7.98 0 0 1-9.2 7.47 7.96 7.96 0 0 1-8.6.08l-.48.02a7.98 7.98 0 0 1-7.28-11.23 7.98 7.98 0 0 1 8.2-12.24 7.92 7.92 0 0 1 4.44-1.35Z" opacity=".8"/>
    <path fill="#734B02" stroke="#000" stroke-width="1.07" d="M31.49 80.6c1.45 0 2.8.43 3.95 1.14h.1a7.53 7.53 0 0 1 7.52 7.13v.39a7.5 7.5 0 0 1-.65 3.05 7.46 7.46 0 0 1 1.26 4.18v.39a7.53 7.53 0 0 1-8.68 7.04 7.5 7.5 0 0 1-8.11.08l-.45.01a7.53 7.53 0 0 1-6.86-10.59 7.53 7.53 0 0 1 7.73-11.54 7.47 7.47 0 0 1 4.19-1.27Z"/>
    <path fill="#3B2906" d="M33.39 83c1.45 0 2.8.43 3.95 1.14h.1a7.53 7.53 0 0 1 7.52 7.13v.4a7.5 7.5 0 0 1-.66 3.05 7.46 7.46 0 0 1 1.27 4.17v.39a7.53 7.53 0 0 1-8.68 7.04 7.5 7.5 0 0 1-8.11.08l-.45.01a7.53 7.53 0 0 1-6.86-10.58 7.53 7.53 0 0 1 7.73-11.54A7.47 7.47 0 0 1 33.39 83Z"/>
    <path fill="#734B02" stroke="#000" stroke-width="1.07" d="M108.65 85.64c1.45 0 2.8.42 3.95 1.13h.1a7.53 7.53 0 0 1 7.52 7.13v.4a7.5 7.5 0 0 1-.65 3.05 7.46 7.46 0 0 1 1.26 4.17v.4a7.53 7.53 0 0 1-8.68 7.03 7.5 7.5 0 0 1-8.11.08l-.45.01a7.53 7.53 0 0 1-6.86-10.58 7.53 7.53 0 0 1 7.73-11.54 7.47 7.47 0 0 1 4.19-1.28Z"/>
    <path fill="#3B2906" fill-opacity=".51" d="M110.55 88.04c1.45 0 2.8.42 3.95 1.13h.1a7.53 7.53 0 0 1 7.52 7.13v.4a7.5 7.5 0 0 1-.65 3.05 7.46 7.46 0 0 1 1.26 4.17v.4a7.53 7.53 0 0 1-8.68 7.03 7.5 7.5 0 0 1-8.11.08l-.45.01a7.53 7.53 0 0 1-6.86-10.58 7.53 7.53 0 0 1 7.73-11.54 7.47 7.47 0 0 1 4.19-1.28Z"/>
    <path fill="#734B02" stroke="#000" stroke-width=".85" d="M273.04 76.3c1.46 0 2.83.27 3.98.71h.1c4.06 0 7.38 1.98 7.59 4.48v.24c0 .68-.25 1.33-.66 1.92a3.6 3.6 0 0 1 1.27 2.62v.24c-.2 2.5-3.52 4.47-7.58 4.47-.4 0-.8-.02-1.17-.05-1.2.48-2.62.76-4.15.76a11.3 11.3 0 0 1-4.03-.71h-.45c-4.19 0-7.59-2.1-7.59-4.71 0-.69.25-1.34.67-1.93a3.58 3.58 0 0 1-1.29-2.6c0-2.61 3.4-4.73 7.6-4.73.5 0 1 .04 1.49.1a11 11 0 0 1 4.22-.8Z"/>
    <path fill="#3B2906" fill-opacity=".51" d="M274.95 77.81c1.47 0 2.83.26 3.99.71h.1c4.06 0 7.38 1.98 7.58 4.47v.25c0 .68-.24 1.33-.66 1.91.8.75 1.28 1.65 1.28 2.62v.25c-.2 2.49-3.53 4.47-7.58 4.47-.4 0-.8-.02-1.18-.06-1.19.49-2.62.77-4.14.77-1.48 0-2.87-.26-4.03-.72h-.45c-4.19 0-7.6-2.1-7.6-4.7 0-.7.25-1.34.68-1.93a3.58 3.58 0 0 1-1.29-2.61c0-2.6 3.4-4.72 7.6-4.72.5 0 1 .03 1.48.1a11 11 0 0 1 4.22-.81Z"/>
    <path fill="#734B02" stroke="#000" stroke-width=".85" d="M81.75 46.15c1.46 0 2.83.27 3.99.71h.1c4.05 0 7.37 1.98 7.58 4.48v.24a3.3 3.3 0 0 1-.66 1.92 3.6 3.6 0 0 1 1.27 2.61v.25c-.2 2.5-3.52 4.47-7.58 4.47-.4 0-.79-.02-1.17-.05-1.2.48-2.62.76-4.15.76-1.48 0-2.86-.26-4.03-.72l-.45.01c-4.18 0-7.59-2.11-7.59-4.72 0-.68.25-1.33.67-1.92a3.58 3.58 0 0 1-1.28-2.61c0-2.6 3.4-4.72 7.59-4.72.51 0 1 .03 1.49.1a11 11 0 0 1 4.22-.8Z"/>
    <path fill="#3B2906" fill-opacity=".51" d="M83.66 47.66c1.47 0 2.83.26 4 .71h.1c4.05 0 7.37 1.98 7.57 4.47v.25c0 .68-.24 1.33-.66 1.91a3.59 3.59 0 0 1 1.28 2.62v.24c-.2 2.5-3.53 4.48-7.58 4.48-.4 0-.8-.02-1.18-.06-1.19.48-2.61.77-4.14.77-1.48 0-2.87-.26-4.03-.72h-.45c-4.19 0-7.6-2.1-7.6-4.7 0-.7.25-1.34.68-1.93a3.58 3.58 0 0 1-1.29-2.61c0-2.61 3.4-4.72 7.6-4.72.5 0 1 .03 1.48.09a11 11 0 0 1 4.22-.8Z"/>
    <path fill="#734B02" stroke="#000" stroke-width="1.31" d="M206.58 62.67c2.25 0 4.36.4 6.14 1.1h.16c6.25 0 11.37 3.05 11.68 6.89v.37c0 1.05-.37 2.05-1.02 2.95a5.53 5.53 0 0 1 1.97 4.04v.38c-.32 3.84-5.43 6.89-11.68 6.89-.62 0-1.22-.03-1.81-.09a17.12 17.12 0 0 1-6.39 1.18c-2.28 0-4.41-.4-6.2-1.1h-.7c-6.45 0-11.7-3.25-11.7-7.26 0-1.06.38-2.06 1.04-2.96a5.51 5.51 0 0 1-1.99-4.03c0-4.01 5.25-7.26 11.7-7.26.79 0 1.55.04 2.3.14a16.92 16.92 0 0 1 6.5-1.24Z"/>
    <path fill="#3B2906" fill-opacity=".51" d="M209.53 65c2.26 0 4.36.4 6.14 1.09h.16c6.25 0 11.37 3.05 11.68 6.89v.37c0 1.05-.37 2.05-1.02 2.95a5.53 5.53 0 0 1 1.97 4.04v.38c-.31 3.84-5.43 6.89-11.68 6.89-.62 0-1.22-.03-1.81-.09a17.12 17.12 0 0 1-6.39 1.18c-2.28 0-4.41-.4-6.2-1.1h-.7c-6.45 0-11.7-3.25-11.7-7.26 0-1.06.38-2.06 1.04-2.96a5.51 5.51 0 0 1-1.99-4.03c0-4.01 5.25-7.26 11.7-7.26.79 0 1.55.04 2.3.14a16.92 16.92 0 0 1 6.5-1.24Z"/>
  </g>
</svg>
