<svg xmlns="http://www.w3.org/2000/svg" viewBox="0 0 197 276">
  <defs>
    <linearGradient id="a" x1="-2.91%" x2="102.93%" y1="1913.75%" y2="1913.75%">
      <stop offset="0%" stop-color="#F1AAC2"/>
      <stop offset="100%" stop-color="#E5638F"/>
    </linearGradient>
    <linearGradient id="b" x1="102.91%" x2="-2.93%" y1="1911.47%" y2="1911.47%">
      <stop offset="0%" stop-color="#F1AAC2"/>
      <stop offset="100%" stop-color="#E5638F"/>
    </linearGradient>
    <linearGradient id="c" x1="27.36%" x2="90.18%" y1="18.79%" y2="90.34%">
      <stop offset="0%" stop-color="#FFCEAE"/>
      <stop offset="100%" stop-color="#FFB280"/>
    </linearGradient>
    <linearGradient id="d" x1="-8.61%" x2="108.56%" y1="1770.33%" y2="1770.33%">
      <stop offset="0%" stop-color="#8A8A8A"/>
      <stop offset="28.57%" stop-color="#F1F1F1"/>
      <stop offset="100%" stop-color="#FFF"/>
    </linearGradient>
    <linearGradient id="e" x1="-8.63%" x2="108.53%" y1="1772.18%" y2="1772.18%">
      <stop offset="0%" stop-color="#8A8A8A"/>
      <stop offset="28.57%" stop-color="#F1F1F1"/>
      <stop offset="100%" stop-color="#FFF"/>
    </linearGradient>
  </defs>
  <g fill="none" fill-rule="evenodd">
    <path fill="#333" stroke="#000" stroke-width="5.81" d="M98.1 2.93c-.25 0-.58.03-.85.04V3C82.63 3.18 47.07 6.28 34 38.15c-6.52-8.67 0 0-21.03-19.94 0 0-26.38 25.84 9.61 44.2 12.5 116-12.97 160.57 61.04 158.97 4.22-.09 8.84-.03 13.64.09h.13l2.18.04v-.09c4.8-.1 9.42-.17 13.64-.08 74 1.6 48.54-42.98 61.04-158.97 36-18.36 9.61-44.2 9.61-44.2-21.02 19.94-14.5 11.27-21.03 19.93C149.3 5.16 111.7 2.93 98.1 2.93Z"/>
    <path fill="#93939F" stroke="#000" stroke-width="2.71" d="M169.77 196.17c0 42.53-31.2 77-69.69 77-38.48 0-69.68-34.47-69.68-77s31.2-77 69.68-77c38.49 0 69.69 34.47 69.69 77Z"/>
    <path fill="#7F7F8D" d="M99.04 120.06c37.43 1.33 67.42 35.26 67.42 76.95 0 39.34-26.7 71.76-61.16 76.4 24.05-6.72 42.23-38.12 42.23-75.86 0-40.95-21.4-74.46-48.49-77.03v-.46Z"/>
    <path fill="#C1C1C8" d="M98.86 118.92c-37.42 1.33-67.41 35.26-67.41 76.95 0 39.34 26.7 71.76 61.16 76.4-24.05-6.72-42.23-38.12-42.23-75.86 0-40.95 21.4-74.45 48.48-77.03v-.46Z"/>
    <path fill="#FFF" stroke="#000" stroke-width="5.48" d="M72.84 31.47c-17.28 0-31.3 16.21-31.3 36.2 0 20 14.02 36.2 31.3 36.2 10.15 0 19.16-5.6 24.87-14.27 5.72 8.68 14.75 14.28 24.9 14.28 17.28 0 31.3-16.22 31.3-36.2 0-20-14.02-36.21-31.3-36.21-10.15 0-19.18 5.6-24.9 14.28C92 37.08 83 31.47 72.84 31.47Z"/>
    <path fill="#A5A5A5" d="M138.19 34.96c.38 2.3.56 4.69.56 7.12 0 20.64-14.46 37.37-32.3 37.37-10.49 0-19.85-5.78-25.75-14.74-5.9 8.96-15.18 14.74-25.67 14.74a28.7 28.7 0 0 1-14.48-3.95c2.87 17.25 16 30.3 31.74 30.3 10.48 0 19.8-5.81 25.7-14.78 5.91 8.97 15.23 14.79 25.72 14.79 17.83 0 32.34-16.78 32.34-37.42 0-14.62-7.28-27.28-17.86-33.43Z" opacity=".34"/>
    <path fill="#000" stroke="#000" stroke-width="3.48" d="M95.74 70.12a9.06 9.06 0 1 1-18.13 0 9.06 9.06 0 0 1 18.13 0Z"/>
    <path fill="#FFF" d="M85.75 66.95a2.35 2.35 0 1 1-4.7 0 2.35 2.35 0 0 1 4.7 0Z"/>
    <path fill="#000" stroke="#000" stroke-width="3.48" d="M118.69 70.12a9.06 9.06 0 1 1-18.13 0 9.06 9.06 0 0 1 18.13 0Z"/>
    <path fill="#FFF" d="M108.7 66.95a2.35 2.35 0 1 1-4.7 0 2.35 2.35 0 0 1 4.7 0Z"/>
    <path fill="url(#a)" stroke="#000" stroke-width="1.34" d="M7.26 25.6S-6.38 41.4 17.34 56.4c3.8-3.68 4.35-4.34 8.83-7.89v-2.85c-5.43-2.96-2.92-6.83-11.77-17.84L7.26 25.6Z" transform="translate(3.32 2.02)"/>
    <path fill="url(#b)" stroke="#000" stroke-width="1.34" d="M184.26 26.3s13.65 15.81-10.07 30.8c-3.8-3.68-4.35-4.33-8.83-7.89v-2.85c5.42-2.96 2.92-6.83 11.77-17.83l7.13-2.23Z" transform="translate(3.32 2.02)"/>
    <path fill="#7F7F8D" d="M90.03 122.31c37.43 1.33 67.42 35.27 67.42 76.95 0 39.34-26.7 71.76-61.16 76.4 24.04-6.71 42.23-38.12 42.23-75.85 0-40.96-21.4-74.46-48.49-77.03v-.47Z"/>
    <path fill="url(#c)" stroke="#000" stroke-width="2.69" d="M95.05 91.07c-11.54 0-21.5 5.69-26.07 13.89-10.53 3.25-17.3 8.35-17.3 14.08 0 1.57.56 3.12 1.52 4.57a13.22 13.22 0 0 0-1.1 5.26c0 13.04 20 23.6 44.67 23.6s44.67-10.56 44.67-23.6c0-2.08-.52-4.1-1.47-6.01a7.96 7.96 0 0 0 1.05-3.82c0-6.27-8.12-11.78-20.4-14.95-4.77-7.73-14.43-13.02-25.57-13.02Z" transform="translate(3.32 2.02)"/>
    <path fill="#000" d="M114.73 100.97a15.77 15.77 0 1 1-31.55 0 15.77 15.77 0 0 1 31.55 0Z"/>
    <path fill="url(#d)" stroke="#000" stroke-width="3.05" d="M76.48 132.95h17.88v27.24H76.48v-27.24Z" transform="translate(3.32 2.02)"/>
    <path fill="url(#e)" stroke="#000" stroke-width="3.05" d="M94.58 132.44h17.88v27.25H94.58v-27.25Z" transform="translate(3.32 2.02)"/>
    <path stroke="#000" stroke-width="5.37" d="M62.9 125.76c25.97 14.5 50.26 12.15 73.23-3.38"/>
  </g>
</svg>
