<svg xmlns="http://www.w3.org/2000/svg" viewBox="0 0 591.8 591.8"><rect width="591.8" height="591.8" fill="#020512" rx="74" ry="74"/><path fill="#fff" d="M203.1 258.4 77.5 132.8c-15.4-15.4-15.4-40.5 0-55.9 15.4-15.4 40.5-15.4 55.9 0L259 202.5c15.4 15.4 15.4 40.5 0 55.9s-40.5 15.4-55.9 0ZM388.8 333.5l125.6 125.6c15.4 15.4 15.4 40.5 0 55.9s-40.5 15.4-55.9 0L332.9 389.4c-15.4-15.4-15.4-40.5 0-55.9s40.5-15.4 55.9 0Z"/><rect width="256.7" height="79" x="39.9" y="384.6" fill="#fff" rx="39.5" ry="39.5" transform="rotate(-45 168.218 424.222)"/><path fill="#fff" d="M332.9 202.5 458.5 76.9c15.4-15.4 40.5-15.4 55.9 0 15.4 15.4 15.4 40.5 0 55.9L388.8 258.4c-15.4 15.4-40.5 15.4-55.9 0s-15.4-40.5 0-55.9Z"/></svg>
